<?xml version="1.0" standalone="no"?>
<!DOCTYPE svg PUBLIC "-//W3C//DTD SVG 20010904//EN"
 "http://www.w3.org/TR/2001/REC-SVG-20010904/DTD/svg10.dtd">
<svg version="1.0" xmlns="http://www.w3.org/2000/svg"
 width="1080.000000pt" height="630.000000pt" viewBox="0 0 1080.000000 630.000000"
 preserveAspectRatio="xMidYMid meet">

<g transform="translate(0.000000,630.000000) scale(0.100000,-0.100000)" stroke="none">
<path d="M0 3150 l0 -3150 5400 0 5400 0 0 1712 c0 941 -2 1709 -4 1707 -2 -2
-98 -191 -213 -419 -116 -228 -253 -498 -304 -600 l-94 -185 -5 -330 -5 -330
-70 0 -70 0 -5 325 -5 325 -309 616 c-193 385 -307 623 -303 633 8 20 129 23
144 4 13 -16 84 -152 263 -503 235 -458 275 -533 285 -535 6 -1 56 90 113 202
346 680 426 834 436 841 6 4 41 6 79 5 l67 -3 0 1418 0 1417 -5400 0 -5400 0
0 -3150z m1104 304 c3 -9 6 -37 6 -64 0 -34 -4 -50 -16 -54 -9 -3 -177 -6
-375 -6 l-359 0 2 -817 3 -818 364 -3 c277 -2 367 -5 373 -15 9 -14 10 -73 2
-104 l-6 -23 -418 0 c-342 0 -420 2 -429 14 -13 16 -11 1873 2 1894 6 9 103
12 427 12 372 0 419 -2 424 -16z m1134 -55 l3 -66 -90 -7 c-461 -35 -788 -397
-769 -850 3 -61 9 -119 13 -128 6 -16 24 -18 169 -18 l163 0 24 -27 c46 -53
69 -86 69 -99 0 -11 -38 -14 -182 -16 l-183 -3 3 -25 c5 -42 63 -129 142 -210
138 -142 305 -225 506 -251 148 -19 135 -10 132 -82 l-3 -62 -79 -3 c-63 -2
-105 4 -200 28 -199 51 -351 134 -467 256 -86 92 -134 170 -197 327 l-12 27
-387 0 c-214 0 -393 4 -398 8 -13 8 -35 80 -35 111 l0 21 393 2 c386 3 392 3
389 23 -9 65 -3 272 11 350 61 345 294 610 623 711 133 40 203 53 284 51 l75
-2 3 -66z m337 -889 l0 -955 -70 0 -70 0 -3 945 c-1 520 0 951 3 958 3 9 24
12 72 10 l68 -3 0 -955z m1110 0 l0 -955 -59 -3 c-32 -2 -63 1 -68 6 -5 5 -9
197 -9 428 0 241 -4 425 -9 434 -8 13 -71 16 -432 20 l-423 5 -8 59 c-5 32 -6
65 -3 72 4 12 78 14 435 14 l429 0 6 25 c4 14 6 207 6 430 -1 223 2 410 5 416
4 5 34 9 68 7 l62 -3 0 -955z m1355 929 c180 -44 384 -171 497 -309 108 -132
179 -292 208 -470 23 -146 17 -260 -25 -422 -66 -256 -259 -481 -514 -598
-146 -67 -229 -84 -406 -84 -130 -1 -169 3 -243 22 -380 100 -652 401 -708
782 -16 111 -6 302 20 405 96 365 417 646 796 696 96 12 280 2 375 -22z m1644
3 c117 -43 222 -124 285 -217 99 -147 117 -392 40 -555 -61 -130 -135 -210
-244 -265 -96 -48 -144 -55 -396 -55 l-219 0 0 64 c0 49 4 65 16 70 9 3 98 6
198 6 139 0 195 4 237 16 132 39 211 103 262 212 30 64 32 73 32 187 0 102 -4
129 -24 182 -32 87 -87 145 -174 188 -95 46 -179 57 -432 53 l-200 -3 -5 -877
c-4 -620 -8 -880 -16 -888 -6 -6 -36 -10 -70 -8 l-59 3 -3 945 c-1 520 0 951
3 958 4 11 72 13 357 10 336 -3 356 -4 412 -26z m660 22 c14 -6 16 -93 16
-885 l0 -879 265 0 c297 0 285 3 285 -77 0 -77 16 -74 -365 -71 l-340 3 -3
945 c-1 520 0 951 3 958 5 13 109 17 139 6z m1670 -16 c8 -13 48 -102 89 -198
41 -96 108 -249 147 -340 40 -91 90 -208 112 -260 59 -141 150 -353 196 -455
21 -49 58 -133 80 -185 22 -52 72 -169 111 -259 39 -91 71 -173 71 -183 0 -17
-8 -19 -77 -16 l-78 3 -19 40 c-20 41 -52 114 -124 285 -22 52 -51 120 -65
150 -14 30 -60 136 -102 235 -42 99 -82 194 -89 210 -12 27 -61 141 -263 619
-32 77 -64 141 -69 143 -6 2 -26 -31 -44 -74 -18 -43 -40 -96 -50 -118 -10
-22 -32 -74 -50 -115 -17 -41 -42 -100 -55 -130 -14 -30 -126 -293 -250 -585
-125 -291 -235 -549 -246 -572 -10 -24 -19 -47 -19 -52 0 -5 -7 -17 -16 -25
-18 -18 -139 -23 -149 -6 -5 9 57 165 169 425 24 55 108 251 186 435 78 184
150 353 160 375 10 22 55 128 100 235 130 309 170 402 181 421 8 16 22 19 79
19 61 0 71 -3 84 -22z"/>
<path d="M4641 3320 c-367 -78 -631 -385 -648 -754 -9 -190 27 -347 111 -486
106 -176 247 -290 443 -357 72 -25 91 -27 243 -28 189 0 227 8 378 81 165 81
312 244 381 424 154 399 -13 861 -378 1045 -121 60 -191 77 -346 81 -77 2
-160 -1 -184 -6z"/>
</g>
</svg>
